<?xml version="1.0" encoding="UTF-8"?>
<svg version="1.1" xmlns="http://www.w3.org/2000/svg" width="256" height="256">
<path d="M0 0 C5.07897227 0.00010213 10.15780637 -0.01364252 15.23674583 -0.03077221 C19.21783045 -0.04199508 23.19888244 -0.04391622 27.17998123 -0.04339027 C29.05105701 -0.04455139 30.92213418 -0.04886451 32.79319382 -0.05672264 C45.23102687 -0.10415919 57.36217868 0.63994929 69.70556641 2.18530273 C69.70556641 2.84530273 69.70556641 3.50530273 69.70556641 4.18530273 C70.36556641 4.18530273 71.02556641 4.18530273 71.70556641 4.18530273 C73.36986285 12.55692781 73.97345343 20.51721698 73.86181641 29.04077148 C73.85371948 30.2751445 73.84562256 31.50951752 73.83728027 32.78129578 C73.81133649 36.18882024 73.77525035 39.59589274 73.73254395 43.00322723 C73.70491599 45.23791168 73.68001721 47.47261297 73.65576172 49.70733643 C73.5411082 60.14411301 73.3964099 70.5803467 73.24200439 81.01660156 C73.18015132 85.22841244 73.12071427 89.44025747 73.06103516 93.65209961 C72.94482467 101.82986794 72.82607538 110.00759662 72.70556641 118.18530273 C73.52541016 118.08991211 74.34525391 117.99452148 75.18994141 117.89624023 C76.26759766 117.78538086 77.34525391 117.67452148 78.45556641 117.56030273 C79.52291016 117.44428711 80.59025391 117.32827148 81.68994141 117.20874023 C84.76729878 117.18482295 86.19691487 117.46207014 88.70556641 119.18530273 C90.26466803 122.30350598 89.98942411 125.64686729 90.09228516 129.07592773 C90.11867065 129.88054443 90.14505615 130.68516113 90.17224121 131.51416016 C90.25398212 134.15437903 90.3252008 136.79469208 90.39306641 139.43530273 C90.41680328 140.33035522 90.44054016 141.22540771 90.46499634 142.14758301 C90.76732353 154.28356938 90.70828289 166.32135227 89.89306641 178.43530273 C89.81080811 179.67570313 89.7285498 180.91610352 89.64379883 182.1940918 C88.89676577 191.71454567 88.89676577 191.71454567 86.70556641 195.18530273 C83.41210856 196.83203166 79.75157729 196.32338314 76.13183594 196.31469727 C74.79968803 196.31732574 74.79968803 196.31732574 73.44062805 196.32000732 C70.48985872 196.32442533 67.53914891 196.32148553 64.58837891 196.31811523 C62.53490182 196.31878889 60.48142481 196.31975943 58.427948 196.3210144 C54.11195114 196.32249179 49.79597493 196.32033771 45.47998047 196.31567383 C39.97483715 196.31001228 34.46974298 196.31323243 28.96460152 196.31924629 C24.71611164 196.32288147 20.46763316 196.32169919 16.21914291 196.3191185 C14.19156768 196.31845552 12.16399138 196.31925545 10.13641739 196.32159805 C-10.2031012 196.33991931 -10.2031012 196.33991931 -20.29443359 195.18530273 C-20.26897964 196.02095512 -20.26897964 196.02095512 -20.24301147 196.87348938 C-20.06865846 202.66421564 -19.90876711 208.45521225 -19.75732422 214.24658203 C-19.69887286 216.40879526 -19.63671637 218.5709116 -19.57080078 220.73291016 C-19.47677326 223.83795533 -19.39601241 226.9431035 -19.31787109 230.04858398 C-19.28567474 231.0174202 -19.25347839 231.98625641 -19.2203064 232.98445129 C-19.19004868 234.33551216 -19.19004868 234.33551216 -19.15917969 235.71386719 C-19.13697357 236.50662552 -19.11476746 237.29938385 -19.09188843 238.11616516 C-19.29443359 240.18530273 -19.29443359 240.18530273 -21.29443359 243.18530273 C-23.64208984 243.65014648 -23.64208984 243.65014648 -26.29443359 243.18530273 C-32.31736385 238.16793996 -37.51899151 231.05512676 -41.29443359 224.18530273 C-41.29443359 223.52530273 -41.29443359 222.86530273 -41.29443359 222.18530273 C-41.95443359 222.18530273 -42.61443359 222.18530273 -43.29443359 222.18530273 C-44.58789062 220.70751953 -44.58789062 220.70751953 -46.05224609 218.63452148 C-46.59204102 217.8778418 -47.13183594 217.12116211 -47.68798828 216.34155273 C-48.25936523 215.52686523 -48.83074219 214.71217773 -49.41943359 213.87280273 C-50.59373054 212.22032948 -51.76820946 210.56798552 -52.94287109 208.91577148 C-53.51489258 208.10672363 -54.08691406 207.29767578 -54.67626953 206.46411133 C-57.37578894 202.66246465 -60.14353524 198.91173579 -62.90380859 195.15405273 C-65.83130039 191.00951379 -65.64697762 186.981753 -65.86669922 182.05297852 C-65.90931129 181.11672197 -65.95192337 180.18046543 -65.99582672 179.21583748 C-66.39916656 169.31391107 -66.32771969 159.42948535 -66.18440247 149.52264023 C-66.13642709 146.18011123 -66.0970047 142.83756511 -66.05944824 139.49490356 C-65.96449373 131.17242904 -65.85791046 122.85011647 -65.74761963 114.52783203 C-65.6395403 106.36947592 -65.54002918 98.21107351 -65.45068359 90.05249023 C-65.43759155 88.90397331 -65.42449951 87.75545639 -65.41101074 86.57213593 C-65.19811231 66.82082238 -65.46905573 47.09802975 -66.08898926 27.35543823 C-66.13068993 25.83214212 -66.13068993 25.83214212 -66.17323303 24.27807236 C-66.22452019 22.40765029 -66.2845387 20.53743425 -66.3558197 18.66766739 C-66.51259118 12.59932139 -65.70927459 7.08398812 -64.29443359 1.18530273 C-42.86912469 0.01181267 -21.45124333 -0.00236752 0 0 Z " fill="#AACA70" transform="translate(115.29443359375,10.814697265625)"/>
<path d="M0 0 C3.42242447 1.14080816 3.88074799 1.882589 5.875 4.75 C8.34307598 8.17013477 10.97530771 11.04908069 14 14 C15.80581455 16.02603584 17.5820413 18.07504351 19.3515625 20.1328125 C20.95800349 22.00899507 20.95800349 22.00899507 22.7109375 23.6171875 C24 25 24 25 24 27 C24.99 27.33 25.98 27.66 27 28 C27 28.66 27 29.32 27 30 C28.32 30.33 29.64 30.66 31 31 C31 31.66 31 32.32 31 33 C31.66 33 32.32 33 33 33 C33.226875 33.556875 33.45375 34.11375 33.6875 34.6875 C34.98476448 37.21191217 34.98476448 37.21191217 37.5625 39.5625 C40 42 40 42 41 45 C41.66 45 42.32 45 43 45 C46.66508929 48.35703436 48.28937756 50.63755354 48.64596558 55.63612366 C48.68105469 57.47333393 48.68903856 59.31118772 48.67529297 61.14868164 C48.68738297 62.15589767 48.69947296 63.16311371 48.71192932 64.20085144 C48.7457488 67.52091021 48.7443477 70.83994176 48.7421875 74.16015625 C48.75784844 76.47132287 48.77554736 78.78247651 48.79519653 81.09361267 C48.83144993 85.93298943 48.85184442 90.77206658 48.859375 95.61157227 C48.86904538 101.81476561 48.90447877 108.01744364 48.95004082 114.22046757 C48.99286983 120.13782427 49.02493185 126.05522114 49.0546875 131.97265625 C49.06393061 133.66640224 49.06393061 133.66640224 49.07336044 135.39436531 C49.08841582 138.58983004 49.09606523 141.78521845 49.10107422 144.98071289 C49.1087104 146.39832413 49.1087104 146.39832413 49.11650085 147.84457397 C49.11560876 152.02601796 49.07369321 155.92475119 48 160 C47.443125 159.690625 46.88625 159.38125 46.3125 159.0625 C43.87459567 157.94238179 41.63775814 157.43962636 39 157 C35.43022165 164.13955671 36.86583587 174.86927967 36.90234375 182.66796875 C36.90446617 184.40920769 36.90446617 184.40920769 36.90663147 186.18562317 C36.91217942 189.8529429 36.92472195 193.52019907 36.9375 197.1875 C36.94252174 199.69075432 36.94708346 202.19400961 36.95117188 204.69726562 C36.96213174 210.79819837 36.97881713 216.89909464 37 223 C36.34 223 35.68 223 35 223 C33.82638506 221.33861059 32.73574737 219.61820517 31.6875 217.875 C28.57634863 212.84282585 25.45748076 208.37274004 21.1875 204.25 C20 203 20 203 20 201 C19.34 201 18.68 201 18 201 C17.566875 199.906875 17.13375 198.81375 16.6875 197.6875 C15.49126084 194.86209702 14.29266065 193.07431202 12 191 C12 190.34 12 189.68 12 189 C11.01 188.67 10.02 188.34 9 188 C0.95012456 179.23984143 3.87708315 162.99878748 3.92483521 151.83341026 C3.93785243 148.74048039 3.94418209 145.64759471 3.94897461 142.55464172 C3.9622071 134.84320828 3.98588526 127.13181492 4.01037598 119.42041016 C4.08783246 94.6772617 4.08240377 69.9459246 3.5625 45.20703125 C3.54285187 44.23425421 3.52320374 43.26147717 3.50296021 42.25922203 C3.40486818 20.93736892 3.40486818 20.93736892 0 0 Z " fill="#ABCA70" transform="translate(52,18)"/>
<path d="M0 0 C5.07897227 0.00010213 10.15780637 -0.01364252 15.23674583 -0.03077221 C19.21783045 -0.04199508 23.19888244 -0.04391622 27.17998123 -0.04339027 C29.05105701 -0.04455139 30.92213418 -0.04886451 32.79319382 -0.05672264 C45.23102687 -0.10415919 57.36217868 0.63994929 69.70556641 2.18530273 C69.70556641 2.84530273 69.70556641 3.50530273 69.70556641 4.18530273 C70.36556641 4.18530273 71.02556641 4.18530273 71.70556641 4.18530273 C73.36986285 12.55692781 73.97345343 20.51721698 73.86181641 29.04077148 C73.85371948 30.2751445 73.84562256 31.50951752 73.83728027 32.78129578 C73.81133649 36.18882024 73.77525035 39.59589274 73.73254395 43.00322723 C73.70491599 45.23791168 73.68001721 47.47261297 73.65576172 49.70733643 C73.5411082 60.14411301 73.3964099 70.5803467 73.24200439 81.01660156 C73.18015132 85.22841244 73.12071427 89.44025747 73.06103516 93.65209961 C72.94482467 101.82986794 72.82607538 110.00759662 72.70556641 118.18530273 C73.52541016 118.08991211 74.34525391 117.99452148 75.18994141 117.89624023 C76.26759766 117.78538086 77.34525391 117.67452148 78.45556641 117.56030273 C79.52291016 117.44428711 80.59025391 117.32827148 81.68994141 117.20874023 C84.76729878 117.18482295 86.19691487 117.46207014 88.70556641 119.18530273 C90.26466803 122.30350598 89.98942411 125.64686729 90.09228516 129.07592773 C90.11867065 129.88054443 90.14505615 130.68516113 90.17224121 131.51416016 C90.25398212 134.15437903 90.3252008 136.79469208 90.39306641 139.43530273 C90.41680328 140.33035522 90.44054016 141.22540771 90.46499634 142.14758301 C90.76732353 154.28356938 90.70828289 166.32135227 89.89306641 178.43530273 C89.81080811 179.67570313 89.7285498 180.91610352 89.64379883 182.1940918 C88.89676577 191.71454567 88.89676577 191.71454567 86.70556641 195.18530273 C83.41210856 196.83203166 79.75157729 196.32338314 76.13183594 196.31469727 C74.79968803 196.31732574 74.79968803 196.31732574 73.44062805 196.32000732 C70.48985872 196.32442533 67.53914891 196.32148553 64.58837891 196.31811523 C62.53490182 196.31878889 60.48142481 196.31975943 58.427948 196.3210144 C54.11195114 196.32249179 49.79597493 196.32033771 45.47998047 196.31567383 C39.97483715 196.31001228 34.46974298 196.31323243 28.96460152 196.31924629 C24.71611164 196.32288147 20.46763316 196.32169919 16.21914291 196.3191185 C14.19156768 196.31845552 12.16399138 196.31925545 10.13641739 196.32159805 C-10.2031012 196.33991931 -10.2031012 196.33991931 -20.29443359 195.18530273 C-20.26897964 196.02095512 -20.26897964 196.02095512 -20.24301147 196.87348938 C-20.06865846 202.66421564 -19.90876711 208.45521225 -19.75732422 214.24658203 C-19.69887286 216.40879526 -19.63671637 218.5709116 -19.57080078 220.73291016 C-19.47677326 223.83795533 -19.39601241 226.9431035 -19.31787109 230.04858398 C-19.28567474 231.0174202 -19.25347839 231.98625641 -19.2203064 232.98445129 C-19.19004868 234.33551216 -19.19004868 234.33551216 -19.15917969 235.71386719 C-19.13697357 236.50662552 -19.11476746 237.29938385 -19.09188843 238.11616516 C-19.29443359 240.18530273 -19.29443359 240.18530273 -21.29443359 243.18530273 C-23.64208984 243.65014648 -23.64208984 243.65014648 -26.29443359 243.18530273 C-32.31736385 238.16793996 -37.51899151 231.05512676 -41.29443359 224.18530273 C-41.29443359 223.52530273 -41.29443359 222.86530273 -41.29443359 222.18530273 C-41.95443359 222.18530273 -42.61443359 222.18530273 -43.29443359 222.18530273 C-44.58789062 220.70751953 -44.58789062 220.70751953 -46.05224609 218.63452148 C-46.59204102 217.8778418 -47.13183594 217.12116211 -47.68798828 216.34155273 C-48.25936523 215.52686523 -48.83074219 214.71217773 -49.41943359 213.87280273 C-50.59373054 212.22032948 -51.76820946 210.56798552 -52.94287109 208.91577148 C-53.51489258 208.10672363 -54.08691406 207.29767578 -54.67626953 206.46411133 C-57.37578894 202.66246465 -60.14353524 198.91173579 -62.90380859 195.15405273 C-65.83130039 191.00951379 -65.64697762 186.981753 -65.86669922 182.05297852 C-65.90931129 181.11672197 -65.95192337 180.18046543 -65.99582672 179.21583748 C-66.39916656 169.31391107 -66.32771969 159.42948535 -66.18440247 149.52264023 C-66.13642709 146.18011123 -66.0970047 142.83756511 -66.05944824 139.49490356 C-65.96449373 131.17242904 -65.85791046 122.85011647 -65.74761963 114.52783203 C-65.6395403 106.36947592 -65.54002918 98.21107351 -65.45068359 90.05249023 C-65.43759155 88.90397331 -65.42449951 87.75545639 -65.41101074 86.57213593 C-65.19811231 66.82082238 -65.46905573 47.09802975 -66.08898926 27.35543823 C-66.13068993 25.83214212 -66.13068993 25.83214212 -66.17323303 24.27807236 C-66.22452019 22.40765029 -66.2845387 20.53743425 -66.3558197 18.66766739 C-66.51259118 12.59932139 -65.70927459 7.08398812 -64.29443359 1.18530273 C-42.86912469 0.01181267 -21.45124333 -0.00236752 0 0 Z M-63.29443359 7.18530273 C-62.98505859 8.36092773 -62.67568359 9.53655273 -62.35693359 10.74780273 C-59.41709585 24.12764647 -60.00673303 38.54952986 -59.72802734 52.18920898 C-59.70672697 53.19265413 -59.6854266 54.19609928 -59.66348076 55.22995186 C-59.31653444 71.97503078 -59.22757398 88.71435645 -59.26708984 105.46264648 C-59.26968182 106.59843769 -59.27227379 107.7342289 -59.27494431 108.90443802 C-59.30106554 119.37058849 -59.34124523 129.83666816 -59.39038086 140.30273438 C-59.41715941 146.12757995 -59.43418195 151.95238909 -59.44524956 157.77728462 C-59.45141292 159.96168996 -59.46135885 162.14608832 -59.47532845 164.33045769 C-59.49456625 167.34844661 -59.50143915 170.36623535 -59.50561523 173.38427734 C-59.51437683 174.26350357 -59.52313843 175.1427298 -59.53216553 176.04859924 C-59.52021817 183.62064244 -58.92055345 190.55918288 -53.29443359 196.18530273 C-52.63443359 196.18530273 -51.97443359 196.18530273 -51.29443359 196.18530273 C-51.02630859 196.76280273 -50.75818359 197.34030273 -50.48193359 197.93530273 C-49.35804287 200.22525546 -49.35804287 200.22525546 -47.73193359 202.18530273 C-46.26249374 204.2297408 -45.73278711 205.73052302 -45.29443359 208.18530273 C-44.63443359 208.18530273 -43.97443359 208.18530273 -43.29443359 208.18530273 C-43.23255859 208.74217773 -43.17068359 209.29905273 -43.10693359 209.87280273 C-42.19252387 212.47535349 -40.88432025 213.6394187 -38.89990234 215.48999023 C-34.86381417 219.75194223 -30.92401194 224.92614604 -28.29443359 230.18530273 C-27.63443359 230.18530273 -26.97443359 230.18530273 -26.29443359 230.18530273 C-26.29665421 229.54574142 -26.29887482 228.90618011 -26.30116272 228.24723816 C-26.32341191 221.5466671 -26.33842155 214.84610666 -26.34936523 208.14550781 C-26.35437131 205.65006076 -26.36117814 203.15461661 -26.36987305 200.65917969 C-26.38210265 197.05720297 -26.38769932 193.45526529 -26.39208984 189.85327148 C-26.39725113 188.75073532 -26.40241241 187.64819916 -26.4077301 186.51225281 C-26.40901934 168.41447424 -26.40901934 168.41447424 -24.29443359 164.18530273 C-20.95069884 164.74259186 -18.2613036 165.53704162 -15.29443359 167.18530273 C-14.17463114 161.80399331 -14.16350071 156.61143463 -14.19335938 151.14428711 C-14.19493546 150.14843094 -14.19651154 149.15257477 -14.19813538 148.12654114 C-14.20560646 144.84398699 -14.22161216 141.56156454 -14.23974609 138.27905273 C-14.24545498 137.15569016 -14.25116386 136.03232758 -14.25704575 134.87492371 C-14.28853234 128.93519272 -14.32744433 122.99555788 -14.37158203 117.0559082 C-14.41542913 110.92250346 -14.4311666 104.78935499 -14.44081306 98.65581512 C-14.45367336 93.93560293 -14.48836474 89.21572964 -14.52892685 84.49568176 C-14.54441781 82.23432049 -14.55151005 79.9728854 -14.55002213 77.71147156 C-14.5498428 74.54908878 -14.58075156 71.38843583 -14.61914062 68.22631836 C-14.60855873 66.82812614 -14.60855873 66.82812614 -14.59776306 65.40168762 C-14.68244116 61.01797156 -14.93068662 58.06117442 -17.7116394 54.55773926 C-19.95541519 51.95980952 -19.95541519 51.95980952 -22.29443359 52.18530273 C-22.52130859 51.64905273 -22.74818359 51.11280273 -22.98193359 50.56030273 C-24.1429397 48.45943454 -25.31522357 46.87827294 -26.85693359 45.06030273 C-29.29443359 42.18530273 -29.29443359 42.18530273 -30.29443359 40.18530273 C-30.95443359 40.18530273 -31.61443359 40.18530273 -32.29443359 40.18530273 C-32.29443359 39.52530273 -32.29443359 38.86530273 -32.29443359 38.18530273 C-32.93380859 38.08217773 -33.57318359 37.97905273 -34.23193359 37.87280273 C-34.91255859 37.64592773 -35.59318359 37.41905273 -36.29443359 37.18530273 C-36.62443359 36.19530273 -36.95443359 35.20530273 -37.29443359 34.18530273 C-37.95443359 34.18530273 -38.61443359 34.18530273 -39.29443359 34.18530273 C-39.52130859 33.64905273 -39.74818359 33.11280273 -39.98193359 32.56030273 C-42.2559784 28.44536451 -45.36533283 25.11440349 -48.66943359 21.81030273 C-52.68734529 17.79239104 -56.59877889 13.58678415 -59.88037109 8.93920898 C-60.34701172 8.36041992 -60.81365234 7.78163086 -61.29443359 7.18530273 C-61.95443359 7.18530273 -62.61443359 7.18530273 -63.29443359 7.18530273 Z M-54.29443359 7.18530273 C-50.29852194 13.96759808 -45.10552467 19.87230518 -39.29443359 25.18530273 C-38.63443359 25.18530273 -37.97443359 25.18530273 -37.29443359 25.18530273 C-36.96443359 26.50530273 -36.63443359 27.82530273 -36.29443359 29.18530273 C-35.63443359 29.18530273 -34.97443359 29.18530273 -34.29443359 29.18530273 C-33.96443359 30.17530273 -33.63443359 31.16530273 -33.29443359 32.18530273 C-32.63443359 32.18530273 -31.97443359 32.18530273 -31.29443359 32.18530273 C-31.29443359 32.84530273 -31.29443359 33.50530273 -31.29443359 34.18530273 C-30.63443359 34.18530273 -29.97443359 34.18530273 -29.29443359 34.18530273 C-29.29443359 34.84530273 -29.29443359 35.50530273 -29.29443359 36.18530273 C-27.76822483 37.69376425 -27.76822483 37.69376425 -25.85693359 39.18530273 C-22.39612851 41.9819129 -22.39612851 41.9819129 -21.29443359 44.18530273 C-20.63443359 44.18530273 -19.97443359 44.18530273 -19.29443359 44.18530273 C-19.23255859 44.74217773 -19.17068359 45.29905273 -19.10693359 45.87280273 C-17.95795949 49.1429598 -15.78244672 50.81576643 -13.29443359 53.18530273 C-10.62742746 56.19643534 -9.92053251 58.02083805 -9.93367004 62.03216553 C-9.92954605 63.0052919 -9.92542206 63.97841827 -9.9211731 64.98103333 C-9.93195892 66.04198715 -9.94274475 67.10294098 -9.95385742 68.19604492 C-9.9532003 69.879412 -9.9532003 69.879412 -9.95252991 71.5967865 C-9.95462108 75.30876012 -9.9779684 79.02028294 -10.00146484 82.73217773 C-10.00705961 85.30478671 -10.01133027 87.87739889 -10.014328 90.45001221 C-10.02461477 96.53088605 -10.04826253 102.61157366 -10.07837647 108.69237733 C-10.11191996 115.6161365 -10.12840634 122.53990345 -10.14346278 129.46372366 C-10.17481221 143.70433939 -10.22817801 157.94480949 -10.29443359 172.18530273 C-13.92443359 171.85530273 -17.55443359 171.52530273 -21.29443359 171.18530273 C-21.29443359 177.12530273 -21.29443359 183.06530273 -21.29443359 189.18530273 C12.69556641 189.18530273 46.68556641 189.18530273 81.70556641 189.18530273 C82.30132807 167.14212129 82.85916375 145.21798877 82.70556641 123.18530273 C77.09556641 123.18530273 71.48556641 123.18530273 65.70556641 123.18530273 C65.815024 114.60326395 65.92751644 106.02127977 66.04490566 97.43934631 C66.09934165 93.45152831 66.15260526 89.46370288 66.20288086 85.47583008 C66.40399019 69.58378117 66.63699181 53.70933015 67.37179565 37.83105469 C67.68929329 30.94522425 67.83254103 24.07912746 67.76806641 17.18530273 C67.76355469 16.1965918 67.75904297 15.20788086 67.75439453 14.18920898 C67.74306096 11.85449344 67.72697606 9.5199433 67.70556641 7.18530273 C65.43172529 6.04838218 64.19373466 6.05961297 61.66917419 6.05831909 C60.82433472 6.05549927 59.97949524 6.05267944 59.10905457 6.04977417 C57.71521294 6.05281052 57.71521294 6.05281052 56.29321289 6.0559082 C55.31561005 6.05415588 54.3380072 6.05240356 53.33078003 6.05059814 C50.07938896 6.04617719 46.82805185 6.04912187 43.57666016 6.05249023 C41.31095876 6.05181645 39.04525743 6.0508458 36.77955627 6.04959106 C32.01375648 6.04811311 27.24797536 6.05026879 22.48217773 6.05493164 C16.41702725 6.0605804 10.3519215 6.0573817 4.28677273 6.05135918 C-0.40370509 6.04771444 -5.09417264 6.0489108 -9.7846508 6.05148697 C-12.01742496 6.05214801 -14.25020008 6.05135702 -16.4829731 6.04900742 C-29.12571268 6.03863893 -41.68396113 6.24489798 -54.29443359 7.18530273 Z " fill="#594B3E" transform="translate(115.29443359375,10.814697265625)"/>
<path d="M0 0 C0.61617187 0.18949219 1.23234375 0.37898438 1.8671875 0.57421875 C2.37547193 3.92718366 2.87230207 7.28175218 3.3671875 10.63671875 C3.51027344 11.57966797 3.65335938 12.52261719 3.80078125 13.49414062 C4.54527889 18.58154117 5.03832316 23.43301815 4.8671875 28.57421875 C3.7740625 28.80109375 2.6809375 29.02796875 1.5546875 29.26171875 C-2.15910984 30.24918759 -2.15910984 30.24918759 -4.0703125 32.76171875 C-5.35989256 36.17531304 -5.34573529 38.95453139 -5.1328125 42.57421875 C-3.46614583 42.90755208 -1.79947917 43.24088542 -0.1328125 43.57421875 C0.75019531 43.75082031 1.63320312 43.92742187 2.54296875 44.109375 C3.69345703 44.33947266 3.69345703 44.33947266 4.8671875 44.57421875 C5.51923284 68.09615074 5.51923284 68.09615074 -0.1328125 76.57421875 C-0.7928125 76.57421875 -1.4528125 76.57421875 -2.1328125 76.57421875 C-2.4009375 77.21359375 -2.6690625 77.85296875 -2.9453125 78.51171875 C-4.1328125 80.57421875 -4.1328125 80.57421875 -7.1328125 81.57421875 C-7.6278125 83.05921875 -7.6278125 83.05921875 -8.1328125 84.57421875 C-9.875 86.36328125 -9.875 86.36328125 -12.0078125 88.19921875 C-12.70648438 88.81023437 -13.40515625 89.42125 -14.125 90.05078125 C-16.1328125 91.57421875 -16.1328125 91.57421875 -19.1328125 92.57421875 C-19.1328125 93.23421875 -19.1328125 93.89421875 -19.1328125 94.57421875 C-20.92635038 95.58770062 -22.7433389 96.55983059 -24.5703125 97.51171875 C-28.92175036 100.09645194 -28.92175036 100.09645194 -31.0859375 104.48046875 C-31.29824267 107.22628233 -31.34618518 109.83014685 -31.1328125 112.57421875 C-31.7928125 112.57421875 -32.4528125 112.57421875 -33.1328125 112.57421875 C-34.64203586 109.55577203 -34.46688297 106.4208709 -34.65625 103.08203125 C-35.21089857 100.16330681 -36.31081631 98.88025402 -38.1328125 96.57421875 C-39.01171875 94.3125 -39.01171875 94.3125 -39.6953125 91.88671875 C-39.92347656 91.09910156 -40.15164062 90.31148438 -40.38671875 89.5 C-40.63292969 88.53449219 -40.87914063 87.56898438 -41.1328125 86.57421875 C-41.30562744 85.94539795 -41.47844238 85.31657715 -41.65649414 84.66870117 C-43.29868815 78.18867256 -43.46551241 71.92364878 -43.4453125 65.26171875 C-43.46948242 63.68487305 -43.46948242 63.68487305 -43.49414062 62.07617188 C-43.50000083 52.54161765 -41.88877989 43.45863685 -37.6953125 34.82421875 C-37.26089844 33.92445312 -36.82648438 33.0246875 -36.37890625 32.09765625 C-35.96769531 31.26492187 -35.55648437 30.4321875 -35.1328125 29.57421875 C-34.81441406 28.86523438 -34.49601563 28.15625 -34.16796875 27.42578125 C-29.57459171 17.45046458 -22.36699336 8.46900335 -12.0078125 4.38671875 C-10.73164063 3.92652344 -10.73164063 3.92652344 -9.4296875 3.45703125 C-6.95100795 2.58971358 -6.95100795 2.58971358 -4.2578125 0.76171875 C-2.1328125 -0.42578125 -2.1328125 -0.42578125 0 0 Z " fill="#E49059" transform="translate(163.1328125,44.42578125)"/>
<path d="M0 0 C0.61617187 0.18949219 1.23234375 0.37898438 1.8671875 0.57421875 C2.37547193 3.92718366 2.87230207 7.28175218 3.3671875 10.63671875 C3.51027344 11.57966797 3.65335938 12.52261719 3.80078125 13.49414062 C4.54527889 18.58154117 5.03832316 23.43301815 4.8671875 28.57421875 C3.7740625 28.80109375 2.6809375 29.02796875 1.5546875 29.26171875 C-2.15910984 30.24918759 -2.15910984 30.24918759 -4.0703125 32.76171875 C-5.35989256 36.17531304 -5.34573529 38.95453139 -5.1328125 42.57421875 C-3.46614583 42.90755208 -1.79947917 43.24088542 -0.1328125 43.57421875 C0.75019531 43.75082031 1.63320312 43.92742187 2.54296875 44.109375 C3.69345703 44.33947266 3.69345703 44.33947266 4.8671875 44.57421875 C5.51923284 68.09615074 5.51923284 68.09615074 -0.1328125 76.57421875 C-0.7928125 76.57421875 -1.4528125 76.57421875 -2.1328125 76.57421875 C-2.4009375 77.21359375 -2.6690625 77.85296875 -2.9453125 78.51171875 C-4.1328125 80.57421875 -4.1328125 80.57421875 -7.1328125 81.57421875 C-7.6278125 83.05921875 -7.6278125 83.05921875 -8.1328125 84.57421875 C-9.875 86.36328125 -9.875 86.36328125 -12.0078125 88.19921875 C-12.70648438 88.81023437 -13.40515625 89.42125 -14.125 90.05078125 C-16.1328125 91.57421875 -16.1328125 91.57421875 -19.1328125 92.57421875 C-19.1328125 93.23421875 -19.1328125 93.89421875 -19.1328125 94.57421875 C-20.92635038 95.58770062 -22.7433389 96.55983059 -24.5703125 97.51171875 C-28.92175036 100.09645194 -28.92175036 100.09645194 -31.0859375 104.48046875 C-31.29824267 107.22628233 -31.34618518 109.83014685 -31.1328125 112.57421875 C-31.7928125 112.57421875 -32.4528125 112.57421875 -33.1328125 112.57421875 C-34.64203586 109.55577203 -34.46688297 106.4208709 -34.65625 103.08203125 C-35.21089857 100.16330681 -36.31081631 98.88025402 -38.1328125 96.57421875 C-39.01171875 94.3125 -39.01171875 94.3125 -39.6953125 91.88671875 C-39.92347656 91.09910156 -40.15164062 90.31148438 -40.38671875 89.5 C-40.63292969 88.53449219 -40.87914063 87.56898438 -41.1328125 86.57421875 C-41.30562744 85.94539795 -41.47844238 85.31657715 -41.65649414 84.66870117 C-43.29868815 78.18867256 -43.46551241 71.92364878 -43.4453125 65.26171875 C-43.46948242 63.68487305 -43.46948242 63.68487305 -43.49414062 62.07617188 C-43.50000083 52.54161765 -41.88877989 43.45863685 -37.6953125 34.82421875 C-37.26089844 33.92445312 -36.82648438 33.0246875 -36.37890625 32.09765625 C-35.96769531 31.26492187 -35.55648437 30.4321875 -35.1328125 29.57421875 C-34.81441406 28.86523438 -34.49601563 28.15625 -34.16796875 27.42578125 C-29.57459171 17.45046458 -22.36699336 8.46900335 -12.0078125 4.38671875 C-10.73164063 3.92652344 -10.73164063 3.92652344 -9.4296875 3.45703125 C-6.95100795 2.58971358 -6.95100795 2.58971358 -4.2578125 0.76171875 C-2.1328125 -0.42578125 -2.1328125 -0.42578125 0 0 Z M-17.1328125 10.57421875 C-20.16902671 14.02331781 -22.68207825 17.69388952 -25.1328125 21.57421875 C-25.7928125 22.56421875 -26.4528125 23.55421875 -27.1328125 24.57421875 C-27.1328125 25.56421875 -27.1328125 26.55421875 -27.1328125 27.57421875 C-27.7928125 27.57421875 -28.4528125 27.57421875 -29.1328125 27.57421875 C-29.37515625 28.19167969 -29.6175 28.80914062 -29.8671875 29.4453125 C-31.85725738 34.474066 -33.93085189 39.41083344 -36.30078125 44.2734375 C-38.78016278 51.12956765 -38.34861945 58.63513002 -38.3828125 65.82421875 C-38.4034375 66.89285156 -38.4240625 67.96148437 -38.4453125 69.0625 C-38.4807581 76.35543138 -37.4220533 82.65125073 -35.1328125 89.57421875 C-33.58128396 86.75456411 -32.77808979 84.34746815 -32.31640625 81.16796875 C-32.19201172 80.34167969 -32.06761719 79.51539062 -31.93945312 78.6640625 C-31.81763672 77.80941406 -31.69582031 76.95476562 -31.5703125 76.07421875 C-31.32058472 74.37606982 -31.06933598 72.67814372 -30.81640625 70.98046875 C-30.70868896 70.23087891 -30.60097168 69.48128906 -30.48999023 68.70898438 C-30.1328125 66.57421875 -30.1328125 66.57421875 -29.60986328 64.74707031 C-28.92608124 61.6326076 -28.90779025 58.5877289 -28.81640625 55.40234375 C-28.79562515 54.71992615 -28.77484406 54.03750854 -28.75343323 53.33441162 C-28.68829198 51.16444519 -28.62921846 48.99436251 -28.5703125 46.82421875 C-28.52709353 45.34894654 -28.48347818 43.87368588 -28.43945312 42.3984375 C-28.33264732 38.79048709 -28.23128097 35.18240742 -28.1328125 31.57421875 C-27.4728125 31.57421875 -26.8128125 31.57421875 -26.1328125 31.57421875 C-26.29652344 32.22777344 -26.46023437 32.88132812 -26.62890625 33.5546875 C-27.26129813 37.34413649 -27.23977959 41.05912826 -27.1953125 44.88671875 C-27.19080078 45.62728516 -27.18628906 46.36785156 -27.18164062 47.13085938 C-27.16993425 48.94534774 -27.15200148 50.75979409 -27.1328125 52.57421875 C-24.86407283 50.30547908 -24.31686872 48.71407261 -23.2578125 45.70703125 C-22.91234375 44.73894531 -22.566875 43.77085938 -22.2109375 42.7734375 C-21.85515625 41.75894531 -21.499375 40.74445313 -21.1328125 39.69921875 C-20.42667226 37.70104654 -19.71841777 35.70361994 -19.0078125 33.70703125 C-18.69585937 32.81902832 -18.38390625 31.93102539 -18.0625 31.01611328 C-17.1328125 28.57421875 -17.1328125 28.57421875 -16.015625 26.44091797 C-14.9190489 24.46637202 -14.9190489 24.46637202 -15.1328125 21.57421875 C-14.4728125 21.57421875 -13.8128125 21.57421875 -13.1328125 21.57421875 C-12.1428125 19.26421875 -11.1528125 16.95421875 -10.1328125 14.57421875 C-10.1328125 18.30990059 -11.29799259 20.53646127 -12.8203125 23.94921875 C-13.37541096 25.21669906 -13.92876105 26.48494634 -14.48046875 27.75390625 C-14.8983667 28.71441895 -14.8983667 28.71441895 -15.32470703 29.69433594 C-22.2769391 45.136609 -22.2769391 45.136609 -25.1328125 61.57421875 C-24.31296875 61.35765625 -23.493125 61.14109375 -22.6484375 60.91796875 C-21.57078125 60.63953125 -20.493125 60.36109375 -19.3828125 60.07421875 C-18.31546875 59.79578125 -17.248125 59.51734375 -16.1484375 59.23046875 C-13.1328125 58.57421875 -13.1328125 58.57421875 -9.1328125 58.57421875 C-10.83050781 59.20650391 -10.83050781 59.20650391 -12.5625 59.8515625 C-14.04429244 60.40489006 -15.52606209 60.95827864 -17.0078125 61.51171875 C-18.12736328 61.9284082 -18.12736328 61.9284082 -19.26953125 62.35351562 C-23.26005765 63.82521069 -23.26005765 63.82521069 -27.1328125 65.57421875 C-27.60235511 68.62003144 -27.60235511 68.62003144 -27.7578125 72.13671875 C-27.83257812 73.33425781 -27.90734375 74.53179687 -27.984375 75.765625 C-28.03335938 76.69246094 -28.08234375 77.61929688 -28.1328125 78.57421875 C-26.1528125 77.58421875 -24.1728125 76.59421875 -22.1328125 75.57421875 C-21.6378125 76.06921875 -21.6378125 76.06921875 -21.1328125 76.57421875 C-21.69871094 76.85652344 -22.26460937 77.13882813 -22.84765625 77.4296875 C-25.40867735 78.96449979 -27.20315433 80.27739517 -29.1328125 82.57421875 C-30.12917044 86.92618631 -30.23850459 91.12193935 -30.1328125 95.57421875 C-24.81266279 92.34666126 -20.57710464 89.23778744 -16.72265625 84.34765625 C-14.89383911 82.30764893 -12.91883102 80.85905246 -10.6953125 79.26171875 C-5.38932846 75.17880899 0.14443239 70.55736142 1.15917969 63.56103516 C1.45432768 58.87529907 1.23265761 54.24991573 0.8671875 49.57421875 C-0.78990234 49.39246094 -0.78990234 49.39246094 -2.48046875 49.20703125 C-6.1328125 48.57421875 -6.1328125 48.57421875 -8.5703125 46.44921875 C-10.58491649 42.74234741 -10.69990435 40.75652115 -10.1328125 36.57421875 C-8.46717173 31.95971395 -6.57226958 28.00875973 -2.1328125 25.57421875 C-1.1428125 25.24421875 -0.1528125 24.91421875 0.8671875 24.57421875 C0.5592636 21.78197681 0.24606313 18.99050448 -0.0703125 16.19921875 C-0.20083008 15.008125 -0.20083008 15.008125 -0.33398438 13.79296875 C-0.736706 9.55166874 -0.736706 9.55166874 -2.1328125 5.57421875 C-8.08177661 5.26778898 -12.31897558 7.14828625 -17.1328125 10.57421875 Z " fill="#605040" transform="translate(163.1328125,44.42578125)"/>
<path d="M0 0 C0.33 0.99 0.66 1.98 1 3 C1.66 3.33 2.32 3.66 3 4 C2.34 4 1.68 4 1 4 C0.98541748 4.8657666 0.97083496 5.7315332 0.95581055 6.62353516 C0.89390241 9.90794793 0.81961007 13.19163724 0.73754883 16.47558594 C0.70476899 17.88336026 0.6765997 19.29125127 0.65356445 20.69921875 C0.489161 30.49346678 -0.71254013 39.43256521 -3 49 C-3.45953741 51.45519084 -3.83026441 53.90183053 -4.1875 56.375 C-4.34605469 57.45523438 -4.50460938 58.53546875 -4.66796875 59.6484375 C-4.77753906 60.42445313 -4.88710937 61.20046875 -5 62 C-9.2752147 57.7247853 -9.12553952 50.65788636 -9.23046875 44.8984375 C-9.2265294 42.72391473 -9.21203288 40.54938794 -9.1875 38.375 C-9.18685547 37.281875 -9.18621094 36.18875 -9.18554688 35.0625 C-9.1071814 20.67808135 -9.1071814 20.67808135 -6.1875 14.6875 C-3.91902457 9.8680284 -1.945647 4.95726017 0 0 Z " fill="#DF8D57" transform="translate(134,72)"/>
<path d="M0 0 C1 2 1 2 0.44262695 3.90429688 C-0.02977417 5.04995117 -0.02977417 5.04995117 -0.51171875 6.21875 C-0.85783203 7.06953125 -1.20394531 7.9203125 -1.56054688 8.796875 C-1.93244141 9.68890625 -2.30433594 10.5809375 -2.6875 11.5 C-3.21633789 12.79164062 -3.21633789 12.79164062 -3.75585938 14.109375 C-5.18433505 17.59830278 -6.61962148 21.08433848 -8.06591797 24.56591797 C-10.29529295 30.01116373 -12.15389037 35.46332809 -13.75 41.125 C-13.97042969 41.89070313 -14.19085938 42.65640625 -14.41796875 43.4453125 C-14.94991438 45.29555815 -15.47565112 47.14758715 -16 49 C-15.19175781 48.71125 -14.38351563 48.4225 -13.55078125 48.125 C-12.48214844 47.75375 -11.41351563 47.3825 -10.3125 47 C-9.25675781 46.62875 -8.20101562 46.2575 -7.11328125 45.875 C-4.21637944 45.0608143 -1.98299377 44.82290204 1 45 C-0.68769002 48.37538004 -4.55093626 48.90150506 -7.9375 50.125 C-8.67935547 50.40214844 -9.42121094 50.67929688 -10.18554688 50.96484375 C-15.71455511 53 -15.71455511 53 -18 53 C-18 56.96 -18 60.92 -18 65 C-16.35 64.01 -14.7 63.02 -13 62 C-12.01 62.33 -11.02 62.66 -10 63 C-13.96 66.465 -13.96 66.465 -18 70 C-21.00617269 66.99382731 -20.59585316 64.17618402 -21 60 C-21.66 60.66 -22.32 61.32 -23 62 C-22.86215088 61.29617187 -22.72430176 60.59234375 -22.58227539 59.8671875 C-21.12314066 51.88719856 -20.62058796 44.10052601 -20.4375 36 C-20.37754849 33.62489968 -20.31390972 31.24988878 -20.24609375 28.875 C-20.22216553 27.84117188 -20.1982373 26.80734375 -20.17358398 25.7421875 C-20.02193835 23.3465704 -19.68047904 21.2927173 -19 19 C-18.34 19 -17.68 19 -17 19 C-17 25.27 -17 31.54 -17 38 C-16.45730469 36.49308594 -15.91460937 34.98617187 -15.35546875 33.43359375 C-14.63292063 31.43485674 -13.91025835 29.436161 -13.1875 27.4375 C-12.83107422 26.44685547 -12.47464844 25.45621094 -12.10742188 24.43554688 C-10.21725326 19.21590692 -8.25544137 14.07296433 -6 9 C-5.34 9 -4.68 9 -4 9 C-3.896875 8.071875 -3.79375 7.14375 -3.6875 6.1875 C-2.9929808 2.96745642 -2.52259061 1.97420135 0 0 Z " fill="#624B3E" transform="translate(154,57)"/>
<path d="M0 0 C0.66 0.33 1.32 0.66 2 1 C1.505 1.7425 1.505 1.7425 1 2.5 C-0.43636358 6.09090894 -0.12851462 9.14456127 0 13 C0.66 10.69 1.32 8.38 2 6 C2.66 6 3.32 6 4 6 C3.67 12.93 3.34 19.86 3 27 C2.34 27 1.68 27 1 27 C1 25.02 1 23.04 1 21 C0.34 21.33 -0.32 21.66 -1 22 C-1.33 30.25 -1.66 38.5 -2 47 C-2.33 47 -2.66 47 -3 47 C-3.02500545 42.50171257 -3.04300224 38.00346362 -3.05493164 33.50512695 C-3.05991292 31.97972914 -3.06670038 30.45433599 -3.07543945 28.92895508 C-3.20997762 4.81496644 -3.20997762 4.81496644 0 0 Z " fill="#75774F" transform="translate(91,174)"/>
<path d="M0 0 C1 2 1 2 0.44262695 3.90429688 C-0.02977417 5.04995117 -0.02977417 5.04995117 -0.51171875 6.21875 C-1.03088867 7.49492188 -1.03088867 7.49492188 -1.56054688 8.796875 C-1.93244141 9.68890625 -2.30433594 10.5809375 -2.6875 11.5 C-3.21633789 12.79164062 -3.21633789 12.79164062 -3.75585938 14.109375 C-4.47098246 15.85600104 -5.18861456 17.60160181 -5.90869141 19.34619141 C-9.7174736 28.57528035 -9.7174736 28.57528035 -13 38 C-13.99 37.67 -14.98 37.34 -16 37 C-15.30807287 34.9242186 -14.61576566 32.84856335 -13.921875 30.7734375 C-13.28027199 28.84319114 -12.64534961 26.91071667 -12.015625 24.9765625 C-10.23152559 19.52819739 -8.37287569 14.22032653 -6 9 C-5.34 9 -4.68 9 -4 9 C-3.896875 8.071875 -3.79375 7.14375 -3.6875 6.1875 C-2.9929808 2.96745642 -2.52259061 1.97420135 0 0 Z " fill="#6B5140" transform="translate(154,57)"/>
<path d="M0 0 C0.33 0.99 0.66 1.98 1 3 C1.99 2.67 2.98 2.34 4 2 C4 4.97 4 7.94 4 11 C4.763125 10.484375 5.52625 9.96875 6.3125 9.4375 C7.199375 8.963125 8.08625 8.48875 9 8 C9.99 8.33 10.98 8.66 12 9 C9.36 11.31 6.72 13.62 4 16 C0.99382731 12.99382731 1.40414684 10.17618402 1 6 C0.34 6.66 -0.32 7.32 -1 8 C-0.67 5.36 -0.34 2.72 0 0 Z " fill="#7B5943" transform="translate(132,111)"/>
<path d="M0 0 C0.33 0.99 0.66 1.98 1 3 C1.66 3.33 2.32 3.66 3 4 C2.34 4 1.68 4 1 4 C0.67 11.26 0.34 18.52 0 26 C-0.33 26 -0.66 26 -1 26 C-1.33 21.05 -1.66 16.1 -2 11 C-2.99 11.99 -3.98 12.98 -5 14 C-4.28269264 10.76834156 -3.18684926 7.81292078 -1.9375 4.75 C-1.57527344 3.85796875 -1.21304688 2.9659375 -0.83984375 2.046875 C-0.56269531 1.37140625 -0.28554687 0.6959375 0 0 Z " fill="#BC7B50" transform="translate(134,72)"/>
<path d="M0 0 C-1.5922495 3.184499 -4.86094144 3.54842508 -8.0625 4.625 C-8.72572266 4.85445313 -9.38894531 5.08390625 -10.07226562 5.3203125 C-11.71259669 5.88675776 -13.35602157 6.44422923 -15 7 C-15.33 6.34 -15.66 5.68 -16 5 C-16.66 5 -17.32 5 -18 5 C-17 3 -17 3 -14.453125 2.1484375 C-13.39609375 1.89320312 -12.3390625 1.63796875 -11.25 1.375 C-10.20328125 1.11460938 -9.1565625 0.85421875 -8.078125 0.5859375 C-5.28706084 0.05464356 -2.82930789 -0.1152681 0 0 Z " fill="#735542" transform="translate(155,102)"/>
<path d="M0 0 C0.33 0 0.66 0 1 0 C0.67 4.62 0.34 9.24 0 14 C-0.33 12.68 -0.66 11.36 -1 10 C-1.99 10 -2.98 10 -4 10 C-4.33 10.99 -4.66 11.98 -5 13 C-5.33 10.36 -5.66 7.72 -6 5 C-5.01 4.34 -4.02 3.68 -3 3 C-2.67 3.66 -2.34 4.32 -2 5 C-1.34 5 -0.68 5 0 5 C0 3.35 0 1.7 0 0 Z " fill="#815C44" transform="translate(133,127)"/>
<path d="M0 0 C1.55814314 2.4331873 2.06779035 3.57088708 1.609375 6.47265625 C1.32578125 7.32730469 1.0421875 8.18195313 0.75 9.0625 C0.34007812 10.34833984 0.34007812 10.34833984 -0.078125 11.66015625 C-1 14 -1 14 -3 17 C-3.66 16.67 -4.32 16.34 -5 16 C-4.80664062 15.43152344 -4.61328125 14.86304687 -4.4140625 14.27734375 C-2.81863577 9.54635062 -1.33099414 4.81205575 0 0 Z " fill="#705341" transform="translate(143,78)"/>
<path d="M0 0 C1 2 1 2 0.00390625 5.0390625 C-0.47175781 6.22242188 -0.94742188 7.40578125 -1.4375 8.625 C-1.91058594 9.81351563 -2.38367188 11.00203125 -2.87109375 12.2265625 C-3.24363281 13.14179687 -3.61617187 14.05703125 -4 15 C-6 11.25 -6 11.25 -6 9 C-5.34 9 -4.68 9 -4 9 C-3.896875 8.071875 -3.79375 7.14375 -3.6875 6.1875 C-2.9929808 2.96745642 -2.52259061 1.97420135 0 0 Z " fill="#755642" transform="translate(154,57)"/>
<path d="M0 0 C1.32 0 2.64 0 4 0 C3.67 0.99 3.34 1.98 3 3 C2.34 3 1.68 3 1 3 C0.67 4.32 0.34 5.64 0 7 C-0.66 7 -1.32 7 -2 7 C-1.125 1.125 -1.125 1.125 0 0 Z " fill="#56453C" transform="translate(135,107)"/>
<path d="M0 0 C0.66 0.33 1.32 0.66 2 1 C1.68289062 1.56203125 1.36578125 2.1240625 1.0390625 2.703125 C-0.06874525 5.15196317 -0.38975399 7.08387855 -0.625 9.75 C-0.69976562 10.54921875 -0.77453125 11.3484375 -0.8515625 12.171875 C-0.90054688 12.77515625 -0.94953125 13.3784375 -1 14 C-1.33 14 -1.66 14 -2 14 C-2.05410687 12.22950311 -2.09284119 10.45853151 -2.125 8.6875 C-2.14820312 7.70136719 -2.17140625 6.71523437 -2.1953125 5.69921875 C-2 3 -2 3 0 0 Z " fill="#686347" transform="translate(91,174)"/>
<path d="M0 0 C0.33 0 0.66 0 1 0 C1 1.98 1 3.96 1 6 C0.01 6.495 0.01 6.495 -1 7 C-1.66 7.99 -2.32 8.98 -3 10 C-2.25 3.375 -2.25 3.375 0 0 Z " fill="#684F3F" transform="translate(133,116)"/>
<path d="M0 0 C0.66 0.33 1.32 0.66 2 1 C-0.31 3.31 -2.62 5.62 -5 8 C-5.66 7.67 -6.32 7.34 -7 7 C-2.25 1.125 -2.25 1.125 0 0 Z " fill="#D48755" transform="translate(149,53)"/>
<path d="M0 0 C1.125 1.5625 1.125 1.5625 2 4 C1.125 7.75 1.125 7.75 0 11 C-1.125 9.4375 -1.125 9.4375 -2 7 C-1.125 3.25 -1.125 3.25 0 0 Z " fill="#8A6146" transform="translate(143,78)"/>
<path d="M0 0 C-0.99 0.495 -0.99 0.495 -2 1 C-1.67 1.66 -1.34 2.32 -1 3 C-3.60582371 3.93065133 -4.64198224 4.14917407 -7.25 3.0625 C-7.8275 2.711875 -8.405 2.36125 -9 2 C-3.375 -1.125 -3.375 -1.125 0 0 Z " fill="#6B6147" transform="translate(153,50)"/>
</svg>
